<svg width="770" height="576" viewBox="0 0 770 576" fill="none" xmlns="http://www.w3.org/2000/svg">
<g filter="url(#filter0_f_264_734)">
<path d="M231.328 478.279C291.216 477.246 352.261 463.895 411.076 452.768C450.739 445.265 500.768 439.901 535.775 417.859C562.648 400.939 599.698 378.484 631.439 372.712C638.892 371.357 646.322 368.556 652.922 366.67C661.838 364.123 670.233 368.948 678.432 363.482" stroke="black" stroke-width="3" stroke-linecap="round"/>
<path d="M234.349 475.258C218.389 475.258 189.852 456.67 176.951 448.07" stroke="black" stroke-width="3" stroke-linecap="round"/>
<path d="M176.951 445.049C206.276 439.55 233.569 422.259 263.887 420.881C285.686 419.89 308.927 412.41 330.349 408.126C359.001 402.395 387.371 397.261 415.607 390C433.708 385.346 449.366 373.931 465.453 364.993C476.845 358.664 493.546 353.044 506.237 351.231C520.552 349.186 531.55 336.294 546.852 336.294C559.973 336.294 568.666 333.346 580.083 330.084C591.337 326.868 598.747 318.168 611.971 318.168" stroke="black" stroke-width="3" stroke-linecap="round"/>
<path d="M633.126 321.188C651.252 321.188 669.377 321.188 687.503 321.188C709.838 321.188 692.202 320.584 685.154 333.272C681.079 340.606 678.44 350.42 678.44 358.782C678.44 364.172 676.693 352.924 672.398 348.377C663.534 338.99 653.747 333.009 642.189 327.23" stroke="black" stroke-width="3" stroke-linecap="round"/>
<path d="M243.42 493.383C247.063 497.937 251.625 521.001 246.441 523.593" stroke="black" stroke-width="3" stroke-linecap="round"/>
<path d="M170.914 451.09C173.902 466.405 173.935 480.932 173.935 496.404" stroke="black" stroke-width="3" stroke-linecap="round"/>
<path d="M663.326 375.566C663.326 391.59 663.421 405.594 658.962 420.881C656.858 428.098 654.263 434.727 654.263 442.027" stroke="black" stroke-width="3" stroke-linecap="round"/>
<path d="M267.581 67.4258C282.8 67.4258 304.19 84.2879 319.609 89.2439C348.007 98.372 377.582 103.618 405.875 113.412C413.847 116.171 422.268 121.334 430.714 121.803C445.898 122.647 466.668 131.138 481.399 136.237C506.818 145.036 534.504 151.481 558.937 162.587C575.472 170.102 595.759 176.117 613.651 179.37C628.133 182.003 652.335 188.87 664.839 195.817C693.29 211.623 729.281 214.277 760 224.517" stroke="black" stroke-width="3" stroke-linecap="round"/>
<path d="M732.815 227.538C724.66 228.558 717.243 247.826 708.647 252.377C697.806 258.117 675.744 256.733 667.025 248.014C656.44 237.429 656.045 219.126 651.92 205.72C647.501 191.359 645.206 178.432 645.206 162.587C645.206 152.771 662.479 137.047 670.885 132.378C683.303 125.479 700.847 119.598 713.178 129.189C727.899 140.638 737.918 141.564 741.71 162.419C744.206 176.15 741.878 192.419 741.878 206.391" stroke="black" stroke-width="3" stroke-linecap="round"/>
<path d="M352.175 100.657C352.175 120.46 340.706 128.539 331.699 142.95C325.018 153.639 296.877 141.891 288.734 137.58C259.929 122.33 271.403 84.5696 285.042 61.384C292.343 48.9725 305.991 38.0856 315.923 28.1533C326.008 18.0683 340.785 10.828 355.196 10.0274C371.369 9.1289 373.321 30.509 373.321 43.2582C373.321 51.2671 370.881 82.2404 364.258 85.5519" stroke="black" stroke-width="3" stroke-linecap="round"/>
<path d="M186.018 393.691C216.324 393.691 249.46 384.817 279.668 380.097C313.142 374.866 347.922 368.431 380.032 358.111C391.195 354.522 407.731 350.982 417.123 343.677C422.433 339.547 435.082 329.219 441.458 327.397C454.831 323.577 463.154 312.125 479.053 312.125" stroke="#2F27CE" stroke-width="3" stroke-linecap="round"/>
<path d="M479.049 312.125C501.624 312.125 515.731 323.401 536.279 330.25C557.691 337.388 583.805 341.683 602.909 354.418" stroke="#2F27CE" stroke-width="3" stroke-linecap="round"/>
<path d="M602.909 354.419C618.252 325.438 627.077 305.824 627.077 272.852" stroke="#2F27CE" stroke-width="3" stroke-linecap="round"/>
<path d="M479.049 281.915C491.785 283.995 564.081 304.838 569.51 280.405C573.501 262.446 549.763 246.951 536.447 240.293C515.501 229.819 499.276 226.407 480.559 240.964C457.785 258.678 475.088 277.26 491.133 287.957" stroke="#2F27CE" stroke-width="3" stroke-linecap="round"/>
<path d="M460.927 306.084C432.45 306.084 408.669 275.874 379.361 275.874" stroke="#2F27CE" stroke-width="3" stroke-linecap="round"/>
<path d="M373.316 278.895C362.917 277.595 374.501 213.926 377.848 207.902C386.197 192.873 388.421 166.228 388.421 148.993" stroke="#2F27CE" stroke-width="3" stroke-linecap="round"/>
<path d="M630.099 278.895C627.727 259.924 627.078 238.98 627.078 218.475" stroke="#2F27CE" stroke-width="3" stroke-linecap="round"/>
<path d="M198.098 381.608C196.996 390.425 169.279 404.976 162.517 412.489C155.401 420.396 153.835 429.695 143.72 435.314C135.216 440.039 126.059 442.105 118.042 446.559C106.385 453.035 98.279 445.107 101.259 461.496C104.288 478.156 104.448 496.016 104.448 513.021C104.448 524.118 102.16 537.13 107.469 546.419C111.508 553.488 116.13 559.043 119.552 565.888" stroke="#2F27CE" stroke-width="3" stroke-linecap="round"/>
<path d="M186.017 375.566C162.984 375.566 139.705 369.524 116.367 369.524C107.932 369.524 19.8484 357.134 18.1852 360.461C16.1086 364.614 25.22 391.921 25.7376 398.391C27.2663 417.5 27.0401 438.096 22.8844 456.796C20.7695 466.314 15.2872 472.715 11.4719 481.3C8.61211 487.734 10.8006 498.461 10.8006 505.468" stroke="#2F27CE" stroke-width="3" stroke-linecap="round"/>
</g>
<defs>
<filter id="filter0_f_264_734" x="0.599573" y="0.60003" width="768.801" height="574.688" filterUnits="userSpaceOnUse" color-interpolation-filters="sRGB">
<feFlood flood-opacity="0" result="BackgroundImageFix"/>
<feBlend mode="normal" in="SourceGraphic" in2="BackgroundImageFix" result="shape"/>
<feGaussianBlur stdDeviation="3.95" result="effect1_foregroundBlur_264_734"/>
</filter>
</defs>
</svg>
