<svg width="52" height="42" viewBox="0 0 52 42" fill="none" xmlns="http://www.w3.org/2000/svg">
<path d="M15.7551 34.696C19.7477 34.6217 23.8173 33.661 27.7383 32.8603C30.3825 32.3204 33.7178 31.9344 36.0516 30.3484C37.8431 29.1309 40.3131 27.515 42.4292 27.0998C42.9261 27.0023 43.4214 26.8007 43.8614 26.665C44.4558 26.4817 45.0155 26.8289 45.5621 26.4355" stroke="black" stroke-width="1.5" stroke-linecap="round"/>
<path d="M15.9567 34.4786C14.8927 34.4786 12.9902 33.1411 12.1301 32.5222" stroke="black" stroke-width="1.5" stroke-linecap="round"/>
<path d="M12.1301 32.3049C14.0852 31.9092 15.9047 30.665 17.9259 30.5659C19.3791 30.4946 20.9286 29.9563 22.3567 29.648C24.2668 29.2357 26.1582 28.8662 28.0406 28.3437C29.2473 28.0088 30.2912 27.1874 31.3637 26.5443C32.1231 26.0889 33.2365 25.6845 34.0826 25.554C35.0369 25.4069 35.7701 24.4792 36.7902 24.4792C37.665 24.4792 38.2446 24.2671 39.0056 24.0324C39.7559 23.801 40.25 23.1749 41.1315 23.1749" stroke="black" stroke-width="1.5" stroke-linecap="round"/>
<path d="M42.5417 23.3923C43.7501 23.3923 44.9585 23.3923 46.1669 23.3923C47.6559 23.3923 46.4802 23.3489 46.0103 24.2618C45.7387 24.7895 45.5627 25.4958 45.5627 26.0975C45.5627 26.4853 45.4462 25.6759 45.1599 25.3487C44.5689 24.6733 43.9165 24.2429 43.1459 23.8271" stroke="black" stroke-width="1.5" stroke-linecap="round"/>
<path d="M16.5613 35.7828C16.8042 36.1105 17.1083 37.7701 16.7627 37.9566" stroke="black" stroke-width="1.5" stroke-linecap="round"/>
<path d="M11.7275 32.7395C11.9268 33.8415 11.9289 34.8868 11.9289 36.0002" stroke="black" stroke-width="1.5" stroke-linecap="round"/>
<path d="M44.5551 27.3051C44.5551 28.4581 44.5615 29.4658 44.2642 30.5658C44.1239 31.0851 43.9509 31.5621 43.9509 32.0874" stroke="black" stroke-width="1.5" stroke-linecap="round"/>
<path d="M18.1721 5.1322C19.1867 5.1322 20.6127 6.34555 21.6406 6.70217C23.5339 7.359 25.5055 7.7365 27.3917 8.44121C27.9232 8.63979 28.4845 9.01128 29.0476 9.04505C30.0599 9.10575 31.4446 9.71672 32.4267 10.0836C34.1212 10.7168 35.967 11.1805 37.5959 11.9797C38.6982 12.5205 40.0507 12.9533 41.2434 13.1874C42.2089 13.3768 43.8224 13.871 44.656 14.3709C46.5527 15.5082 48.9521 15.6992 51.0001 16.436" stroke="black" stroke-width="1.5" stroke-linecap="round"/>
<path d="M49.1877 16.6534C48.6441 16.7267 48.1496 18.1132 47.5765 18.4407C46.8538 18.8537 45.383 18.7541 44.8017 18.1267C44.0961 17.3651 44.0697 16.048 43.7947 15.0834C43.5001 14.05 43.3472 13.1198 43.3472 11.9797C43.3472 11.2733 44.4987 10.1419 45.0591 9.80588C45.8869 9.30945 47.0566 8.88628 47.8786 9.57642C48.86 10.4003 49.5279 10.4669 49.7807 11.9676C49.9472 12.9556 49.7919 14.1263 49.7919 15.1317" stroke="black" stroke-width="1.5" stroke-linecap="round"/>
<path d="M23.8116 7.52339C23.8116 8.94838 23.0471 9.52969 22.4466 10.5667C22.0012 11.3359 20.1251 10.4905 19.5823 10.1803C17.6619 9.08293 18.4269 6.36581 19.3361 4.69744C19.8228 3.80434 20.7327 3.02095 21.3948 2.30626C22.0672 1.58057 23.0523 1.05958 24.013 1.00197C25.0913 0.937318 25.2214 2.47576 25.2214 3.39316C25.2214 3.96946 25.0587 6.1982 24.6172 6.43648" stroke="black" stroke-width="1.5" stroke-linecap="round"/>
<path d="M12.7346 28.6093C14.755 28.6093 16.9641 27.9707 18.978 27.631C21.2095 27.2547 23.5283 26.7917 25.6689 26.049C26.4131 25.7908 27.5155 25.536 28.1416 25.0104C28.4956 24.7132 29.3389 23.9701 29.764 23.839C30.6555 23.564 31.2103 22.74 32.2703 22.74" stroke="#2F27CE" stroke-width="1.5" stroke-linecap="round"/>
<path d="M32.27 22.74C33.775 22.74 34.7155 23.5514 36.0854 24.0443C37.5129 24.5578 39.2538 24.8669 40.5274 25.7833" stroke="#2F27CE" stroke-width="1.5" stroke-linecap="round"/>
<path d="M40.5273 25.7832C41.5502 23.6979 42.1385 22.2865 42.1385 19.9139" stroke="#2F27CE" stroke-width="1.5" stroke-linecap="round"/>
<path d="M32.27 20.5661C33.1191 20.7158 37.9388 22.2156 38.3008 20.4575C38.5668 19.1652 36.9843 18.0502 36.0966 17.5711C34.7001 16.8175 33.6185 16.5719 32.3707 17.6194C30.8524 18.894 32.0059 20.2312 33.0756 21.0009" stroke="#2F27CE" stroke-width="1.5" stroke-linecap="round"/>
<path d="M31.5 22.5C29.4052 22.5 27.6559 20 25.5 20" stroke="#2F27CE" stroke-width="1.5" stroke-linecap="round"/>
<path d="M25.5 20C24.8067 19.9065 25.3002 15.6739 25.5233 15.2404C26.0799 14.159 26.2282 12.2417 26.2282 11.0015" stroke="#2F27CE" stroke-width="1.5" stroke-linecap="round"/>
<path d="M42 20C41.6075 18.7441 41.5 17.3575 41.5 16" stroke="#2F27CE" stroke-width="1.5" stroke-linecap="round"/>
<path d="M13 28.25C12.9265 28.8845 11.6185 29.4213 11.1678 29.9619C10.6933 30.5308 10.5889 31.1999 9.9146 31.6043C9.34767 31.9442 8.73719 32.0929 8.20272 32.4134C7.42561 32.8794 6.88519 32.309 7.08384 33.4883C7.28578 34.6871 7.29643 35.9722 7.29643 37.1958C7.29643 37.9943 7.14394 38.9306 7.49782 39.5991C7.7671 40.1077 8.07526 40.5074 8.30342 41" stroke="#2F27CE" stroke-width="1.5" stroke-linecap="round"/>
<path d="M12.7345 28.1277C11.1989 28.1277 9.647 27.693 8.09113 27.693C7.52879 27.693 1.65656 26.8015 1.54568 27.0408C1.40724 27.3397 2.01467 29.3046 2.04917 29.7701C2.15109 31.1452 2.13601 32.6272 1.85896 33.9728C1.71797 34.6577 1.35248 35.1183 1.09813 35.736C0.907474 36.199 1.05337 36.9709 1.05337 37.4751" stroke="#2F27CE" stroke-width="1.5" stroke-linecap="round"/>
</svg>
